<?xml version="1.0" encoding="utf-8"?>
<!-- Generator: Adobe Illustrator 16.0.0, SVG Export Plug-In . SVG Version: 6.00 Build 0)  -->
<!DOCTYPE svg PUBLIC "-//W3C//DTD SVG 1.1//EN" "http://www.w3.org/Graphics/SVG/1.1/DTD/svg11.dtd">
<svg version="1.1" id="Capa_1" xmlns="http://www.w3.org/2000/svg" xmlns:xlink="http://www.w3.org/1999/xlink" x="0px" y="0px"
	 width="1280px" height="800px" viewBox="0 0 1280 800" enable-background="new 0 0 1280 800" xml:space="preserve">
<g>
	<g>
		<path fill="#FFFFFF" d="M762.862,388.953c-2.906-2.906-6.938-4.578-11.047-4.578s-8.141,1.672-11.047,4.578
			s-4.578,6.938-4.578,11.047s1.672,8.141,4.578,11.045c2.906,2.906,6.938,4.58,11.047,4.58s8.141-1.672,11.047-4.58
			c2.906-2.904,4.578-6.936,4.578-11.045S765.769,391.859,762.862,388.953z"/>
	</g>
</g>
<g>
	<g>
		<path fill="#FFFFFF" d="M692.275,464.328c-18.807,0-37.117,6.354-52.072,17.787c-14.955-11.433-33.266-17.787-52.072-17.787
			c-48.141,0-87.303,40.394-87.303,90.042c0,33.616,22.727,69.433,67.549,106.458c31.725,26.205,63.019,43.398,64.336,44.117
			c2.334,1.273,4.91,1.912,7.488,1.912s5.155-0.637,7.489-1.912c1.317-0.719,32.614-17.912,64.336-44.117
			c44.823-37.025,67.549-72.842,67.549-106.458C779.578,504.721,740.416,464.328,692.275,464.328z M640.197,673.255
			c-35.984-21.189-108.119-73.117-108.119-118.886c0-32.419,25.146-58.793,56.053-58.793c15.447,0,29.838,6.457,40.523,18.182
			c2.961,3.248,7.153,5.1,11.549,5.1s8.588-1.852,11.549-5.1c10.684-11.725,25.076-18.182,40.523-18.182
			c30.909,0,56.055,26.375,56.055,58.793C748.33,600.044,676.174,652.036,640.197,673.255z"/>
	</g>
</g>
<g>
	<g>
		<path fill="#FFFFFF" d="M988.174,224.315c-9.302,0-18.393,2.604-26.299,7.375c-7.908-4.771-16.997-7.375-26.299-7.375
			c-28.578,0-51.826,23.871-51.826,53.209c0,43.019,63.406,78.886,70.635,82.834c2.334,1.275,4.91,1.912,7.488,1.912
			s5.155-0.637,7.489-1.912c7.229-3.948,70.635-39.817,70.635-82.834C1040,248.186,1016.752,224.315,988.174,224.315z
			 M961.878,328.552c-21.123-13.136-46.876-35.396-46.876-51.028c0-12.109,9.23-21.959,20.576-21.959
			c5.599,0,10.838,2.364,14.75,6.658c2.961,3.249,7.153,5.1,11.549,5.1c4.395,0,8.587-1.852,11.548-5.1
			c3.913-4.293,9.15-6.658,14.75-6.658c11.346,0,20.577,9.852,20.577,21.959C1008.75,293.294,983.378,315.229,961.878,328.552z"/>
	</g>
</g>
<g>
	<g>
		<path fill="#FFFFFF" d="M344.433,277.669c-9.3,0-18.392,2.603-26.298,7.375c-7.908-4.772-16.999-7.375-26.298-7.375
			c-28.578,0-51.827,23.868-51.827,53.209c0,43.019,63.405,78.888,70.634,82.835c2.334,1.273,4.911,1.912,7.489,1.912
			s5.155-0.638,7.489-1.912c7.229-3.949,70.634-39.817,70.634-82.835C396.259,301.537,373.011,277.669,344.433,277.669z
			 M318.136,381.904c-21.123-13.136-46.876-35.395-46.876-51.027c0-12.108,9.231-21.96,20.577-21.96
			c5.599,0,10.837,2.364,14.75,6.658c2.961,3.248,7.153,5.1,11.548,5.1c4.396,0,8.587-1.852,11.548-5.1
			c3.913-4.294,9.152-6.658,14.75-6.658c11.346,0,20.577,9.852,20.577,21.96C365.009,346.646,339.638,368.581,318.136,381.904z"/>
	</g>
</g>
<g>
	<g>
		<path fill="#FFFFFF" d="M466.883,31.026c-9.3,0-18.393,2.604-26.299,7.377c-7.907-4.773-16.996-7.377-26.298-7.377
			c-28.578,0-51.827,23.871-51.827,53.209c0,43.017,63.405,78.886,70.634,82.834c2.334,1.275,4.911,1.913,7.489,1.913
			s5.154-0.638,7.489-1.913c7.229-3.948,70.634-39.817,70.634-82.834C518.709,54.897,495.461,31.026,466.883,31.026z
			 M440.586,135.263c-21.508-13.328-46.875-35.26-46.875-51.03c-0.001-12.108,9.229-21.959,20.577-21.959
			c5.598,0,10.835,2.364,14.75,6.658c2.961,3.249,7.153,5.1,11.549,5.1s8.588-1.852,11.549-5.1c3.914-4.293,9.151-6.658,14.75-6.658
			c11.345,0,20.576,9.852,20.576,21.959C487.461,100.005,462.088,121.939,440.586,135.263z"/>
	</g>
</g>
<g>
	<g>
		<path fill="#FFFFFF" d="M751.052,688.948c-2.906-2.906-6.938-4.578-11.047-4.578s-8.141,1.671-11.047,4.578
			c-2.906,2.906-4.578,6.938-4.578,11.047s1.672,8.141,4.578,11.046c2.906,2.906,6.938,4.579,11.047,4.579s8.141-1.672,11.047-4.579
			c2.906-2.905,4.578-6.937,4.578-11.046C755.628,695.886,753.956,691.854,751.052,688.948z"/>
	</g>
</g>
<g>
	<g>
		<path fill="#FFFFFF" d="M624.49,301.547c-2.906-2.906-6.938-4.578-11.047-4.578s-8.141,1.672-11.047,4.578
			s-4.578,6.938-4.578,11.047s1.672,8.141,4.578,11.047s6.938,4.578,11.047,4.578s8.141-1.672,11.047-4.578
			s4.578-6.938,4.578-11.047S627.396,304.453,624.49,301.547z"/>
	</g>
</g>
<g>
	<g>
		<path fill="#FFFFFF" d="M671.364,170.205c-2.906-2.908-6.938-4.578-11.047-4.578s-8.141,1.672-11.047,4.578
			s-4.578,6.938-4.578,11.047s1.672,8.141,4.578,11.047s6.938,4.578,11.047,4.578s8.141-1.672,11.047-4.578
			s4.578-6.938,4.578-11.047S674.271,173.111,671.364,170.205z"/>
	</g>
</g>
<g>
	<g>
		<path fill="#FFFFFF" d="M624.49,71.769c-2.906-2.908-6.938-4.578-11.047-4.578s-8.141,1.672-11.047,4.578
			s-4.578,6.938-4.578,11.047s1.672,8.141,4.578,11.047s6.938,4.578,11.047,4.578s8.141-1.672,11.047-4.578
			s4.578-6.938,4.578-11.047S627.396,74.675,624.49,71.769z"/>
	</g>
</g>
<g>
	<g>
		<path fill="#FFFFFF" d="M452.898,518.986c-8.63,0-15.625,6.996-15.625,15.625v0.126c0,8.628,6.995,15.562,15.625,15.562
			s15.625-7.061,15.625-15.688C468.523,525.982,461.528,518.986,452.898,518.986z"/>
	</g>
</g>
<g>
	<g>
		<path fill="#FFFFFF" d="M562.932,687.841c-39.841-20.083-70.924-55.757-85.28-97.87c-2.784-8.168-11.665-12.53-19.831-9.747
			c-8.169,2.782-12.533,11.662-9.748,19.829c16.973,49.793,53.711,91.96,100.792,115.692c2.255,1.138,4.654,1.675,7.021,1.675
			c5.714,0,11.217-3.145,13.965-8.595C573.736,701.12,570.638,691.727,562.932,687.841z"/>
	</g>
</g>
<g>
	<g>
		<path fill="#FFFFFF" d="M1024.364,768.744H764.891c83.674-44.768,140.736-133.025,140.736-234.372
			c0-57.327-17.976-111.916-51.984-157.867c-31.039-41.939-72.78-73.308-121.229-91.241V31.255H747.2
			c8.63,0,15.625-6.996,15.625-15.625c0-8.63-6.995-15.625-15.625-15.625H532.917c-8.63,0-15.625,6.995-15.625,15.625
			c0,8.629,6.995,15.625,15.625,15.625h14.679v254.011c-48.45,17.932-90.191,49.303-121.23,91.24
			c-34.006,45.952-51.981,100.541-51.981,157.867c0,101.348,57.063,189.605,140.736,234.372H255.625
			c-8.63,0-15.625,6.997-15.625,15.625s6.995,15.625,15.625,15.625h768.739c8.63,0,15.625-6.997,15.625-15.625
			S1032.994,768.744,1024.364,768.744z M405.634,534.372c0-42.922,11.528-83.638,32.098-118.749h245.481
			c8.63,0,15.625-6.996,15.625-15.625s-6.995-15.625-15.625-15.625h-223.55c27.719-33.332,64.831-59.082,108.35-73.112
			c6.453-2.081,10.828-8.086,10.832-14.865V31.256h122.32v262.905v2.225c-0.002,6.784,4.373,12.794,10.831,14.877
			c97.125,31.313,162.383,120.977,162.383,223.112c0,129.232-105.14,234.372-234.372,234.372S405.634,663.604,405.634,534.372z"/>
	</g>
</g>
</svg>
