<?xml version="1.0" encoding="utf-8"?>
<!-- Generator: Adobe Illustrator 16.0.0, SVG Export Plug-In . SVG Version: 6.00 Build 0)  -->
<!DOCTYPE svg PUBLIC "-//W3C//DTD SVG 1.1//EN" "http://www.w3.org/Graphics/SVG/1.1/DTD/svg11.dtd">
<svg version="1.1" id="Layer_1" xmlns="http://www.w3.org/2000/svg" xmlns:xlink="http://www.w3.org/1999/xlink" x="0px" y="0px"
	 width="512px" height="512px" viewBox="0 0 512 512" enable-background="new 0 0 512 512" xml:space="preserve">
<g id="surface1">
	<path fill="#FFFFFF" d="M511.5,343.766h-37.977v-36.887c0-28.57-15.246-53.645-38.031-67.52
		c14.855-13.016,24.254-32.059,24.254-53.258c0-39.141-32-70.984-71.332-70.984s-71.332,31.844-71.332,70.984
		c0,21.238,9.438,40.316,24.344,53.336c-22.719,13.887-37.91,38.922-37.91,67.438v36.887H271.16v-57.551l-14.199-24.891v-44.344
		h-29.934v44.344l-14.199,24.891v57.551h-42.32v-36.887c0-28.551-15.23-53.609-37.988-67.488
		c14.625-13.074,23.859-32.113,23.859-53.285c0-39.336-31.84-71.332-70.98-71.332s-70.98,31.996-70.98,71.332
		c0,21.215,9.273,40.285,23.949,53.363C15.676,253.355,0.5,278.379,0.5,306.879v161.617h170.008v-94.797h70.578v93.797h29.938
		v-93.797h32.492v94.797h170.008v-94.797H511.5V343.766z M85.398,144.703c22.633,0,41.047,18.57,41.047,41.398
		c0,22.824-18.414,41.395-41.047,41.395s-41.047-18.57-41.047-41.395C44.352,163.273,62.766,144.703,85.398,144.703z
		 M140.57,438.559H30.434v-131.68c0-27.051,22.008-49.055,49.055-49.055h12.027c27.051,0,49.055,22.004,49.055,49.055V438.559z
		 M388.414,145.055c22.828,0,41.398,18.414,41.398,41.047s-18.57,41.047-41.398,41.047c-22.824,0-41.398-18.414-41.398-41.047
		S365.59,145.055,388.414,145.055z M333.449,306.879c0-27.051,22.008-49.055,49.055-49.055h12.027
		c27.051,0,49.055,22.004,49.055,49.055v36.887H333.449V306.879z M443.586,438.559H333.449v-64.859h110.137V438.559z"/>
	<path fill="#FFFFFF" d="M218.684,141.055l10.598-10.488l21.992-21.988c8.609-8.613,8.609-22.625,0-31.234
		c-8.613-8.609-22.621-8.609-31.234,0l-1.238,1.238l-1.359-1.363c-8.586-8.586-22.574-8.605-31.195-0.039
		c-4.188,4.164-6.504,9.707-6.516,15.609c-0.016,5.906,2.273,11.461,6.441,15.645L218.684,141.055z"/>
	<path fill="#FFFFFF" d="M289.055,70.797l32.488-32.488c8.609-8.613,8.609-22.625,0-31.234c-8.613-8.609-22.621-8.609-31.234,0
		l-1.238,1.238l-1.359-1.363c-8.531-8.527-22.391-8.605-31.016-0.219l-0.18,0.18c-4.188,4.164-6.504,9.707-6.52,15.613
		c-0.012,5.902,2.273,11.461,6.445,15.641L289.055,70.797z"/>
</g>
</svg>
