<?xml version="1.0" encoding="utf-8"?>
<!-- Generator: Adobe Illustrator 16.0.0, SVG Export Plug-In . SVG Version: 6.00 Build 0)  -->
<!DOCTYPE svg PUBLIC "-//W3C//DTD SVG 1.1//EN" "http://www.w3.org/Graphics/SVG/1.1/DTD/svg11.dtd">
<svg version="1.1" id="Capa_1" xmlns="http://www.w3.org/2000/svg" xmlns:xlink="http://www.w3.org/1999/xlink" x="0px" y="0px"
	 width="1280px" height="800px" viewBox="0 0 1280 800" enable-background="new 0 0 1280 800" xml:space="preserve">
<g>
	<g id="Layer_1_85_">
		<g>
			<path fill="#FFFFFF" d="M541.595,391.774c-3.118-6.82-19.5-43.847-31.055-93.354c-11.933-51.116-20.673-125.809,5.445-191.331
				c6.251-15.678,14.133-30.096,23.589-43.242c-32.203,0.489-62.227,9.378-89.698,26.656
				c-53.941,33.926-87.921,94.544-106.933,139.427c-19.734,46.6-27.68,85.335-28.483,89.393
				c-9.507,36.293-8.116,70.01,4.131,100.213c11.063,27.295,30.738,51.188,58.487,71.055c15.902,34.39,24.169,59.511,24.282,65.244
				l-51.225,194.492c-3.082,11.707,3.935,23.745,15.644,26.825l83.983,22.12c11.707,3.086,23.745-3.929,26.829-15.644
				l51.167-194.272c1.328-1.968,7.766-10.316,32.183-29.289c7.854-6.105,15.562-11.744,21.148-15.744
				c33.938-3.62,62.829-14.729,85.904-33.03c2.393-1.896,4.696-3.896,6.956-5.942c-21.778-4.227-41.755-11.92-59.686-23.053
				C581.856,462.178,557.411,431.724,541.595,391.774z M485.622,576.901l-45.907,174.31l-41.517-10.938l45.911-174.304
				c1.947-7.397,2.289-18.028-6.495-43.536c11.749,4.489,24.146,8.464,37.036,11.856c12.843,3.382,25.537,6.023,37.926,7.903
				C492.534,559.938,487.593,569.414,485.622,576.901z"/>
			<path fill="#FFFFFF" d="M970.26,661.154l-73.1-187.129c-0.09-2.367,0.198-12.911,8.749-42.625
				c2.753-9.562,5.658-18.653,7.816-25.181c25.294-22.916,42.093-48.912,49.956-77.292c8.707-31.411,6.221-65.061-7.385-100.024
				c-1.259-3.942-13.597-41.509-38.544-85.539c-24.031-42.407-64.734-98.734-122.204-126.252
				c-45.933-21.995-95.727-22.791-147.998-2.371c-52.272,20.42-88.34,54.755-107.2,102.062
				c-23.598,59.188-15.349,128.193-4.271,175.656c11.504,49.284,27.901,85.264,29.647,89.015
				c13.692,34.927,34.68,61.354,62.37,78.545c25.024,15.537,54.995,23.257,89.128,22.964c33.107,18.42,54.583,33.85,58.053,38.417
				l73.182,187.334c4.407,11.28,17.167,16.871,28.447,12.469l80.891-31.604C969.074,685.191,974.666,672.435,970.26,661.154z
				 M763.152,244.415c-22.209,0-40.211-18.005-40.211-40.211c0-22.209,18.002-40.209,40.211-40.209
				c22.206,0,40.209,18,40.209,40.209C803.363,226.407,785.358,244.415,763.152,244.415z M881.373,672.302l-65.584-167.896
				c-2.78-7.123-8.772-15.914-30.9-31.354c12.145-3.293,24.499-7.387,36.917-12.23c12.374-4.841,24.182-10.179,35.3-15.962
				c-5.738,26.147-4.149,36.72-1.331,43.931l65.589,167.891L881.373,672.302z"/>
		</g>
	</g>
</g>
</svg>
